<?xml version="1.0" standalone="no"?>
<!DOCTYPE svg PUBLIC "-//W3C//DTD SVG 20010904//EN"
 "http://www.w3.org/TR/2001/REC-SVG-20010904/DTD/svg10.dtd">
<svg version="1.0" xmlns="http://www.w3.org/2000/svg"
 width="1019.000000pt" height="1019.000000pt" viewBox="0 0 1019.000000 1019.000000"
 preserveAspectRatio="xMidYMid meet">
<metadata>
Created by potrace 1.14, written by Peter Selinger 2001-2017
</metadata>
<g transform="translate(0.000000,1019.000000) scale(0.100000,-0.100000)"
fill="#000000" stroke="none">
<path d="M5325 10174 c125 -20 260 -64 328 -108 59 -38 133 -109 119 -114 -6
-2 -48 6 -94 17 -75 17 -146 32 -173 36 -5 0 -30 4 -55 8 -144 23 -248 31
-440 31 -185 0 -346 -10 -450 -29 -132 -25 -242 -50 -280 -65 -14 -6 -35 -12
-48 -15 -38 -7 -252 -95 -347 -143 -368 -184 -668 -454 -850 -763 -41 -70 -74
-133 -72 -135 2 -2 38 15 81 37 43 23 77 37 75 32 -2 -4 -20 -39 -40 -78 -20
-38 -50 -111 -67 -161 -39 -117 -59 -212 -77 -369 -7 -58 -7 -312 -1 -367 10
-83 18 -142 21 -163 11 -76 27 -158 38 -202 l14 -52 -97 -75 c-129 -99 -179
-145 -340 -306 -145 -145 -162 -163 -259 -285 -128 -161 -306 -430 -356 -538
-8 -18 -19 -39 -24 -47 -41 -66 -143 -302 -199 -460 -51 -145 -121 -401 -137
-500 -3 -19 -10 -60 -15 -90 -6 -30 -12 -77 -15 -105 -4 -27 -8 -61 -10 -75
-20 -122 -27 -571 -11 -715 16 -154 35 -286 52 -367 7 -37 16 -82 19 -100 3
-18 17 -76 31 -128 119 -445 308 -842 577 -1210 69 -94 82 -111 175 -220 67
-78 284 -296 367 -367 399 -342 886 -605 1370 -738 28 -8 84 -26 125 -40 70
-25 137 -45 220 -66 36 -9 227 -44 292 -53 125 -19 373 -24 533 -12 98 8 95 7
240 32 116 19 104 16 220 48 50 14 101 28 115 31 14 4 34 10 45 15 35 15 107
38 200 66 223 66 580 219 756 325 205 123 467 314 603 438 142 131 280 279
391 419 47 59 90 113 95 120 26 30 122 177 187 283 85 139 253 479 253 512 0
7 4 17 9 23 24 26 132 384 167 554 55 269 69 418 69 750 0 265 -6 362 -36 545
-6 33 -12 71 -14 85 -23 148 -123 511 -165 605 -5 11 -21 52 -36 90 -96 250
-294 596 -476 833 -201 261 -494 548 -721 707 l-21 15 28 117 c45 194 49 226
50 403 0 120 -9 274 -19 289 -2 4 -6 29 -9 56 -7 55 -43 195 -74 293 l-20 63
21 -7 c12 -3 30 -14 41 -23 19 -16 49 -67 44 -75 -2 -2 0 -7 4 -11 12 -13 -3
151 -21 230 -72 301 -297 532 -638 655 l-62 22 35 37 c39 39 70 98 79 148 8
51 -27 131 -82 184 -50 48 -112 94 -118 88 -1 -2 3 -33 9 -69 17 -87 12 -168
-12 -200 -30 -40 -45 -34 -74 28 -40 85 -128 168 -238 226 -107 56 -242 102
-359 121 -19 3 -37 8 -41 10 -4 2 -38 7 -76 10 -38 3 -80 7 -94 10 -14 3 -95
8 -180 10 l-155 4 100 -15z"/>
</g>
</svg>
